<svg width="80" height="160" viewBox="0 0 80 160" xmlns="http://www.w3.org/2000/svg">
  <path fill="#e2e2e6" fill-rule="evenodd" clip-rule="evenodd" d="M0 61.4517L-40 79.4517L-40.5 79.2267V79.6767L-41.2184 80L-40.5 80.3233V142.323L-0.5 160.323V160.773L0 160.548L0.5 160.773V160.323L40.5 142.323V80.3233L41.2184 80L40.5 79.6767V79.2267L40 79.4517L0 61.4517ZM38.7816 80L0 62.5483L-38.7816 80L0 97.4517L38.7816 80ZM39.5 80.7733L0.5 98.3233V159.227L39.5 141.677V80.7733ZM-0.5 98.3233L-39.5 80.7733V141.677L-0.5 159.227V98.3233Z"/>
  <path fill="#ececf0" fill-rule="evenodd" clip-rule="evenodd" d="M40 -18.5483L0 -0.548296L-0.5 -0.773294V-0.323296L-1.21843 -1.90735e-06L-0.5 0.323292V62.3233L39.5 80.3233V80.7733L40 80.5483L40.5 80.7733V80.3233L80.5 62.3233V0.323292L81.2184 -1.90735e-06L80.5 -0.323296V-0.773294L80 -0.548296L40 -18.5483ZM78.7816 -1.90735e-06L40 -17.4517L1.21843 -1.90735e-06L40 17.4517L78.7816 -1.90735e-06ZM79.5 0.773291L40.5 18.3233V79.2267L79.5 61.6767V0.773291ZM39.5 18.3233L0.5 0.773291V61.6767L39.5 79.2267V18.3233Z"/>
  <path fill="#d6d6da" fill-rule="evenodd" clip-rule="evenodd" d="M40 141.452L0 159.452L-0.5 159.227V159.677L-1.21843 160L-0.5 160.323V222.323L39.5 240.323V240.773L40 240.548L40.5 240.773V240.323L80.5 222.323V160.323L81.2184 160L80.5 159.677V159.227L80 159.452L40 141.452ZM78.7816 160L40 142.548L1.21843 160L40 177.452L78.7816 160ZM79.5 160.773L40.5 178.323V239.227L79.5 221.677V160.773ZM39.5 178.323L0.5 160.773V221.677L39.5 239.227V178.323Z"/>
  <path fill="#ececf0" fill-rule="evenodd" clip-rule="evenodd" d="M80 61.4517L40 79.4517L39.5 79.2267V79.6767L38.7816 80L39.5 80.3233V142.323L79.5 160.323V160.773L80 160.548L80.5 160.773V160.323L120.5 142.323V80.3233L121.218 80L120.5 79.6767V79.2267L120 79.4517L80 61.4517ZM118.782 80L80 62.5483L41.2184 80L80 97.4517L118.782 80ZM119.5 80.7733L80.5 98.3233V159.227L119.5 141.677V80.7733ZM79.5 98.3233L40.5 80.7733V141.677L79.5 159.227V98.3233Z"/>
</svg>
